<?xml version="1.0" encoding="UTF-8"?>
<svg width="332px" height="338px" viewBox="0 0 332 338" version="1.1" xmlns="http://www.w3.org/2000/svg" xmlns:xlink="http://www.w3.org/1999/xlink">
    <!-- Generator: Sketch 52.3 (67297) - http://www.bohemiancoding.com/sketch -->
    <title>Group 77</title>
    <desc>Created with Sketch.</desc>
    <g id="Page-1" stroke="none" stroke-width="1" fill="none" fill-rule="evenodd">
        <g id="Group-77" transform="translate(3.000000, 3.000000)">
            <path d="M123.4362,279.9325 C116.3292,257.7835 106.1952,237.2875 90.6262,213.5145 C75.0572,189.7415 73.5832,141.1875 112.7132,108.4855 C100.0032,97.6935 72.4022,71.2035 91.3432,46.4645 C103.8272,30.1575 112.4012,25.2265 113.7032,0.0175 C126.2452,20.3145 132.6582,21.4445 139.1922,35.0945 C153.2522,36.0865 173.1572,45.7545 183.4522,61.1255 C197.7882,54.0235 205.4902,57.7065 217.5442,57.0365 C211.5802,69.2125 195.9752,75.2865 193.4822,88.2325 C190.8742,101.7735 168.4222,134.8435 129.5162,117.1885 C127.9212,144.9395 123.5822,176.8225 200.2072,222.6145 C258.4632,257.4295 238.7142,327.2065 213.7912,327.7645 C176.8522,328.5925 165.0992,329.1465 152.9292,330.4305 C140.7592,331.7155 150.4682,318.2695 162.9832,317.4405 C155.3572,312.9055 143.9552,294.8445 149.5312,286.0925 C144.5352,284.1385 137.7712,281.9555 137.7712,281.9555 C144.0332,308.0155 136.9622,327.9825 136.9622,327.9825 C136.9622,327.9825 126.0862,328.7205 119.6382,327.9765 C119.6472,318.7975 125.3422,318.7635 128.2602,316.9985 C128.2602,316.9985 130.5182,302.0075 123.4362,279.9325" id="Fill-1" fill="#171714"></path>
            <path d="M123.4362,279.9325 C116.3292,257.7835 106.1952,237.2875 90.6262,213.5145 C75.0572,189.7415 73.5832,141.1875 112.7132,108.4855 C100.0032,97.6935 72.4022,71.2035 91.3432,46.4645 C103.8272,30.1575 112.4012,25.2265 113.7032,0.0175 C126.2452,20.3145 132.6582,21.4445 139.1922,35.0945 C153.2522,36.0865 173.1572,45.7545 183.4522,61.1255 C197.7882,54.0235 205.4902,57.7065 217.5442,57.0365 C211.5802,69.2125 195.9752,75.2865 193.4822,88.2325 C190.8742,101.7735 168.4222,134.8435 129.5162,117.1885 C127.9212,144.9395 123.5822,176.8225 200.2072,222.6145 C258.4632,257.4295 238.7142,327.2065 213.7912,327.7645 C176.8522,328.5925 165.0992,329.1465 152.9292,330.4305 C140.7592,331.7155 150.4682,318.2695 162.9832,317.4405 C155.3572,312.9055 143.9552,294.8445 149.5312,286.0925 C144.5352,284.1385 137.7712,281.9555 137.7712,281.9555 C144.0332,308.0155 136.9622,327.9825 136.9622,327.9825 C136.9622,327.9825 126.0862,328.7205 119.6382,327.9765 C119.6472,318.7975 125.3422,318.7635 128.2602,316.9985 C128.2602,316.9985 130.5182,302.0075 123.4362,279.9325 Z" id="Stroke-3" stroke="#171714" stroke-width="1.856"></path>
            <polygon id="Fill-5" fill="#FFFFFF" points="136.1892 80.3182 148.6322 87.5222 137.2822 93.6922"></polygon>
            <polygon id="Stroke-7" stroke="#171714" stroke-width="1.856" points="136.1892 80.3182 148.6322 87.5222 137.2822 93.6922"></polygon>
            <path d="M109.757,41.7992 C104.821,47.3662 106.291,61.1082 128.897,75.6102 C132.756,65.1772 136.065,37.1692 109.757,41.7992" id="Fill-9" fill="#FFF000"></path>
            <path d="M109.757,41.7992 C104.821,47.3662 106.291,61.1082 128.897,75.6102 C132.756,65.1772 136.065,37.1692 109.757,41.7992 Z" id="Stroke-11" stroke="#FFF000" stroke-width="1.856"></path>
            <path d="M157.0905,87.4916 C166.5015,91.9866 177.6045,96.4516 181.0515,80.8146 C178.8225,75.1676 167.9265,69.8736 157.0905,87.4916" id="Fill-13" fill="#FFF000"></path>
            <path d="M157.0905,87.4916 C166.5015,91.9866 177.6045,96.4516 181.0515,80.8146 C178.8225,75.1676 167.9265,69.8736 157.0905,87.4916 Z" id="Stroke-15" stroke="#FFF000" stroke-width="1.856"></path>
            <path d="M124.155,58.8339 C120.667,61.8849 115.74,61.9589 113.152,58.9999 C110.565,56.0409 111.295,51.1679 114.783,48.1169 C118.272,45.0669 123.198,44.9929 125.786,47.9519 C128.374,50.9109 127.644,55.7829 124.155,58.8339" id="Fill-17" fill="#171714"></path>
            <path d="M124.155,58.8339 C120.667,61.8849 115.74,61.9589 113.152,58.9999 C110.565,56.0409 111.295,51.1679 114.783,48.1169 C118.272,45.0669 123.198,44.9929 125.786,47.9519 C128.374,50.9109 127.644,55.7829 124.155,58.8339 Z" id="Stroke-19" stroke="#171714" stroke-width="2.109"></path>
            <path d="M171.5652,84.8368 C170.6842,87.9248 167.9872,89.8628 165.5412,89.1648 C163.0942,88.4668 161.8252,85.3988 162.7062,82.3108 C163.5862,79.2228 166.2842,77.2848 168.7302,77.9828 C171.1762,78.6798 172.4462,81.7488 171.5652,84.8368" id="Fill-21" fill="#171714"></path>
            <path d="M171.5652,84.8368 C170.6842,87.9248 167.9872,89.8628 165.5412,89.1648 C163.0942,88.4668 161.8252,85.3988 162.7062,82.3108 C163.5862,79.2228 166.2842,77.2848 168.7302,77.9828 C171.1762,78.6798 172.4462,81.7488 171.5652,84.8368 Z" id="Stroke-23" stroke="#171714" stroke-width="1.412"></path>
            <path d="M118.9089,87.579 C126.2119,94.44 139.5469,104.142 147.8019,103.507 C137.3239,106.683 123.6719,98.498 118.9089,87.579" id="Fill-25" fill="#FFFFFF"></path>
            <path d="M112.633,302.826 C116.524,290.7 122.071,279.48 130.594,266.467 C139.117,253.452 139.924,226.874 118.503,208.971 C125.461,203.063 140.57,188.561 130.202,175.018 C123.367,166.092 118.674,163.392 117.961,149.592 C111.096,160.703 107.585,161.322 104.008,168.794 C96.31,169.337 85.415,174.63 79.779,183.045 C71.93,179.157 67.715,181.173 61.115,180.806 C64.381,187.472 72.923,190.797 74.288,197.884 C75.716,205.297 88.006,223.399 109.305,213.734 C110.177,228.927 112.552,246.381 70.606,271.448 C38.715,290.507 49.526,328.705 63.17,329.011 C83.392,329.464 89.825,329.767 96.488,330.47 C103.15,331.173 97.835,323.812 90.984,323.358 C95.158,320.876 101.4,310.989 98.348,306.198 C101.083,305.128 104.786,303.933 104.786,303.933 C101.358,318.199 105.229,329.13 105.229,329.13 C105.229,329.13 111.182,329.534 114.712,329.126 C114.707,324.101 111.589,324.083 109.992,323.117 C109.992,323.117 108.756,314.91 112.633,302.826" id="Fill-27" fill="#FFFFFF"></path>
            <path d="M112.633,302.826 C116.524,290.7 122.071,279.48 130.594,266.467 C139.117,253.452 139.924,226.874 118.503,208.971 C125.461,203.063 140.57,188.561 130.202,175.018 C123.367,166.092 118.674,163.392 117.961,149.592 C111.096,160.703 107.585,161.322 104.008,168.794 C96.31,169.337 85.415,174.63 79.779,183.045 C71.93,179.157 67.715,181.173 61.115,180.806 C64.381,187.472 72.923,190.797 74.288,197.884 C75.716,205.297 88.006,223.399 109.305,213.734 C110.177,228.927 112.552,246.381 70.606,271.448 C38.715,290.507 49.526,328.705 63.17,329.011 C83.392,329.464 89.825,329.767 96.488,330.47 C103.15,331.173 97.835,323.812 90.984,323.358 C95.158,320.876 101.4,310.989 98.348,306.198 C101.083,305.128 104.786,303.933 104.786,303.933 C101.358,318.199 105.229,329.13 105.229,329.13 C105.229,329.13 111.182,329.534 114.712,329.126 C114.707,324.101 111.589,324.083 109.992,323.117 C109.992,323.117 108.756,314.91 112.633,302.826 Z" id="Stroke-29" stroke="#FFFFFF" stroke-width="5.569"></path>
            <path d="M57.4187,326.2587 C45.1867,323.7257 25.8397,307.9257 27.6707,280.2247 C29.5027,252.5247 25.6067,211.7087 9.2957,208.9707 C-7.0143,206.2327 2.7607,185.4227 16.5087,192.7217 C30.2577,200.0207 44.3257,214.1617 38.2347,255.5247 C32.1437,296.8867 32.1077,304.4487 57.4187,326.2587" id="Fill-31" fill="#FFFFFF"></path>
            <path d="M57.4187,326.2587 C45.1867,323.7257 25.8397,307.9257 27.6707,280.2247 C29.5027,252.5247 25.6067,211.7087 9.2957,208.9707 C-7.0143,206.2327 2.7607,185.4227 16.5087,192.7217 C30.2577,200.0207 44.3257,214.1617 38.2347,255.5247 C32.1437,296.8867 32.1077,304.4487 57.4187,326.2587 Z" id="Stroke-33" stroke="#FFFFFF" stroke-width="5.569"></path>
            <path d="M112.633,302.826 C116.524,290.7 122.071,279.48 130.594,266.467 C139.117,253.452 139.924,226.874 118.503,208.971 C125.461,203.063 140.57,188.561 130.202,175.018 C123.367,166.092 118.674,163.392 117.961,149.592 C111.096,160.703 107.585,161.322 104.008,168.794 C96.31,169.337 85.415,174.63 79.779,183.045 C71.93,179.157 67.715,181.173 61.115,180.806 C64.381,187.472 72.923,190.797 74.288,197.884 C75.716,205.297 88.006,223.399 109.305,213.734 C110.177,228.927 112.552,246.381 70.606,271.448 C38.715,290.507 49.526,328.705 63.17,329.011 C83.392,329.464 89.825,329.767 96.488,330.47 C103.15,331.173 97.835,323.812 90.984,323.358 C95.158,320.876 101.4,310.989 98.348,306.198 C101.083,305.128 104.786,303.933 104.786,303.933 C101.358,318.199 105.229,329.13 105.229,329.13 C105.229,329.13 111.182,329.534 114.712,329.126 C114.707,324.101 111.589,324.083 109.992,323.117 C109.992,323.117 108.756,314.91 112.633,302.826" id="Fill-35" fill="#171714"></path>
            <path d="M112.633,302.826 C116.524,290.7 122.071,279.48 130.594,266.467 C139.117,253.452 139.924,226.874 118.503,208.971 C125.461,203.063 140.57,188.561 130.202,175.018 C123.367,166.092 118.674,163.392 117.961,149.592 C111.096,160.703 107.585,161.322 104.008,168.794 C96.31,169.337 85.415,174.63 79.779,183.045 C71.93,179.157 67.715,181.173 61.115,180.806 C64.381,187.472 72.923,190.797 74.288,197.884 C75.716,205.297 88.006,223.399 109.305,213.734 C110.177,228.927 112.552,246.381 70.606,271.448 C38.715,290.507 49.526,328.705 63.17,329.011 C83.392,329.464 89.825,329.767 96.488,330.47 C103.15,331.173 97.835,323.812 90.984,323.358 C95.158,320.876 101.4,310.989 98.348,306.198 C101.083,305.128 104.786,303.933 104.786,303.933 C101.358,318.199 105.229,329.13 105.229,329.13 C105.229,329.13 111.182,329.534 114.712,329.126 C114.707,324.101 111.589,324.083 109.992,323.117 C109.992,323.117 108.756,314.91 112.633,302.826 Z" id="Stroke-37" stroke="#171714" stroke-width="1.016"></path>
            <path d="M57.4187,326.2587 C45.1867,323.7257 25.8397,307.9257 27.6707,280.2247 C29.5027,252.5247 25.6067,211.7087 9.2957,208.9707 C-7.0143,206.2327 2.7607,185.4227 16.5087,192.7217 C30.2577,200.0207 44.3257,214.1617 38.2347,255.5247 C32.1437,296.8867 32.1077,304.4487 57.4187,326.2587" id="Fill-39" fill="#171714"></path>
            <path d="M57.4187,326.2587 C45.1867,323.7257 25.8397,307.9257 27.6707,280.2247 C29.5027,252.5247 25.6067,211.7087 9.2957,208.9707 C-7.0143,206.2327 2.7607,185.4227 16.5087,192.7217 C30.2577,200.0207 44.3257,214.1617 38.2347,255.5247 C32.1437,296.8867 32.1077,304.4487 57.4187,326.2587 Z" id="Stroke-41" stroke="#171714" stroke-width="1.016"></path>
            <polygon id="Fill-43" fill="#FFFFFF" points="105.6516 193.5507 98.8396 197.4947 105.0536 200.8727"></polygon>
            <polygon id="Stroke-45" stroke="#171714" stroke-width="1.016" points="105.6516 193.5507 98.8396 197.4947 105.0536 200.8727"></polygon>
            <path d="M120.1218,172.4647 C122.8228,175.5127 122.0188,183.0347 109.6428,190.9737 C107.5318,185.2627 105.7198,169.9307 120.1218,172.4647" id="Fill-47" fill="#FFF000"></path>
            <path d="M120.1218,172.4647 C122.8228,175.5127 122.0188,183.0347 109.6428,190.9737 C107.5318,185.2627 105.7198,169.9307 120.1218,172.4647 Z" id="Stroke-49" stroke="#FFF000" stroke-width="1.016"></path>
            <path d="M94.2097,197.4784 C89.0577,199.9384 82.9807,202.3824 81.0927,193.8234 C82.3127,190.7314 88.2767,187.8334 94.2097,197.4784" id="Fill-51" fill="#FFF000"></path>
            <path d="M94.2097,197.4784 C89.0577,199.9384 82.9807,202.3824 81.0927,193.8234 C82.3127,190.7314 88.2767,187.8334 94.2097,197.4784 Z" id="Stroke-53" stroke="#FFF000" stroke-width="1.016"></path>
            <path d="M112.2395,181.7899 C114.1495,183.4599 116.8455,183.5009 118.2625,181.8809 C119.6785,180.2609 119.2795,177.5939 117.3695,175.9229 C115.4605,174.2539 112.7635,174.2129 111.3465,175.8329 C109.9295,177.4529 110.3295,180.1199 112.2395,181.7899" id="Fill-55" fill="#171714"></path>
            <path d="M112.2395,181.7899 C114.1495,183.4599 116.8455,183.5009 118.2625,181.8809 C119.6785,180.2609 119.2795,177.5939 117.3695,175.9229 C115.4605,174.2539 112.7635,174.2129 111.3465,175.8329 C109.9295,177.4529 110.3295,180.1199 112.2395,181.7899 Z" id="Stroke-57" stroke="#171714" stroke-width="1.155"></path>
            <path d="M86.2859,196.0253 C86.7679,197.7153 88.2449,198.7763 89.5839,198.3943 C90.9229,198.0123 91.6179,196.3323 91.1359,194.6413 C90.6529,192.9513 89.1769,191.8903 87.8379,192.2723 C86.4989,192.6543 85.8039,194.3353 86.2859,196.0253" id="Fill-59" fill="#171714"></path>
            <path d="M86.2859,196.0253 C86.7679,197.7153 88.2449,198.7763 89.5839,198.3943 C90.9229,198.0123 91.6179,196.3323 91.1359,194.6413 C90.6529,192.9513 89.1769,191.8903 87.8379,192.2723 C86.4989,192.6543 85.8039,194.3353 86.2859,196.0253 Z" id="Stroke-61" stroke="#171714" stroke-width="0.773"></path>
            <path d="M115.1115,197.5262 C111.1135,201.2822 103.8135,206.5922 99.2945,206.2452 C105.0305,207.9832 112.5045,203.5042 115.1115,197.5262" id="Fill-63" fill="#FFFFFF"></path>
            <path d="M224.2976,322.7382 C246.6426,318.1112 281.9836,289.2482 278.6376,238.6462 C275.2926,188.0452 282.4076,113.4882 312.2026,108.4862 C341.9986,103.4832 324.1436,65.4682 299.0276,78.8022 C273.9116,92.1352 248.2146,117.9682 259.3416,193.5262 C270.4676,269.0842 270.5326,282.8972 224.2976,322.7382" id="Fill-65" fill="#171714"></path>
            <path d="M224.2976,322.7382 C246.6426,318.1112 281.9836,289.2482 278.6376,238.6462 C275.2926,188.0452 282.4076,113.4882 312.2026,108.4862 C341.9986,103.4832 324.1436,65.4682 299.0276,78.8022 C273.9116,92.1352 248.2146,117.9682 259.3416,193.5262 C270.4676,269.0842 270.5326,282.8972 224.2976,322.7382 Z" id="Stroke-67" stroke="#171714" stroke-width="1.856"></path>
            <path d="M14.1316,330.5174 L297.4126,330.5174" id="Stroke-69" stroke="#171714" stroke-width="7.691"></path>
            <path d="M59.0598,106.8719 C55.4408,93.5459 68.7808,74.1829 80.5938,86.3769 C92.4078,98.5699 79.1508,132.6219 78.0418,144.2179 C67.7418,145.1479 23.5198,129.2179 30.0238,107.9249 C36.5288,86.6319 51.0178,97.4199 59.0598,106.8719" id="Fill-71" fill="#FF0017"></path>
            <path d="M167.0798,152.5638 C172.4648,144.2638 189.1778,142.1328 188.3108,154.2668 C187.4478,166.3998 162.9328,175.5948 156.2128,180.5438 C150.7938,175.4898 138.1658,144.2678 152.6418,137.5638 C167.1188,130.8628 168.2828,143.7528 167.0798,152.5638" id="Fill-73" fill="#FF0017"></path>
            <path d="M75.1716,177.3348 C75.1716,177.3348 83.0386,164.7348 101.9906,161.3918 C101.9906,161.3918 121.0716,135.9348 121.1356,133.6208 C121.1996,131.3068 123.5666,155.7938 125.8286,158.1238 C131.9976,164.4778 137.0966,174.2458 139.0266,181.5788 C140.9566,188.9128 134.9636,204.4178 128.2266,208.8778 C128.2266,208.8778 139.1976,225.3348 140.2266,237.8488 C142.0056,259.5028 140.4856,261.6778 123.5146,290.7338 C122.4566,290.2058 120.1236,289.5638 119.7506,288.2928 C119.3016,286.7668 121.7626,284.2798 122.5556,283.0698 C125.0446,279.2718 127.4506,275.4128 129.5916,271.4048 C133.7786,263.5678 136.9806,255.0318 137.2756,246.0638 C137.7396,232.0228 130.9326,218.4178 121.0936,208.3898 C127.1126,205.1968 130.6066,198.7648 133.3486,192.5268 C134.5496,189.7958 135.6956,186.9048 135.4836,183.9278 C135.3716,182.3548 134.8796,180.8298 134.2506,179.3838 C133.5126,177.6888 132.5806,176.0778 131.4776,174.5938 C130.0116,172.6218 128.2546,170.8838 126.7156,168.9688 C121.6696,162.6928 119.0926,154.4848 119.6476,146.4518 C119.6036,147.0838 117.4826,147.8098 117.0086,148.1718 C115.6886,149.1808 114.5416,150.6498 113.4856,151.9238 C109.4806,156.7588 107.3636,163.3158 101.9686,166.9188 C98.6926,169.1068 94.8086,169.5798 91.2636,171.2858 C85.4636,174.0778 84.6906,176.9978 80.6276,179.9148 C79.0756,181.0288 76.7196,178.3328 75.1716,177.3348" id="Fill-75" fill="#FFFFFF"></path>
        </g>
    </g>
</svg>