<?xml version="1.0" standalone="no"?>
<!DOCTYPE svg PUBLIC "-//W3C//DTD SVG 20010904//EN"
 "http://www.w3.org/TR/2001/REC-SVG-20010904/DTD/svg10.dtd">
<svg version="1.0" xmlns="http://www.w3.org/2000/svg"
 width="676.000000pt" height="676.000000pt" viewBox="0 0 676.000000 676.000000"
 preserveAspectRatio="xMidYMid meet">
<metadata>
Created by potrace 1.11, written by Peter Selinger 2001-2013
</metadata>
<g transform="translate(0.000000,676.000000) scale(0.100000,-0.100000)"
fill="#000000" stroke="none">
<path d="M2374 6707 c-4 -201 -56 -401 -141 -536 -31 -48 -103 -145 -145 -196
-10 -11 -51 -63 -93 -115 -41 -52 -80 -101 -86 -108 -16 -20 -78 -145 -82
-167 -2 -11 -7 -27 -11 -35 -3 -9 -8 -34 -9 -57 -1 -23 -6 -45 -9 -48 -4 -4
-4 -13 -2 -19 3 -7 6 -37 8 -67 5 -64 13 -109 32 -159 1 -3 5 -15 9 -28 15
-44 90 -189 118 -227 4 -5 18 -24 30 -41 56 -78 100 -128 219 -247 l129 -128
-98 -97 c-183 -181 -305 -360 -404 -592 -41 -98 -83 -237 -94 -320 -2 -14 -5
-25 -6 -25 -3 0 -16 -94 -24 -185 -2 -19 -4 -39 -4 -45 -1 -5 -19 -30 -41 -54
-45 -50 -47 -58 -22 -78 9 -8 13 -12 7 -10 -28 13 -105 19 -245 17 -85 0 -156
-3 -158 -5 -12 -11 96 -157 175 -238 81 -82 143 -170 130 -184 -6 -6 29 -82
62 -138 36 -59 138 -156 201 -192 30 -17 81 -39 113 -48 31 -9 57 -20 57 -25
0 -5 13 -29 30 -53 16 -25 30 -48 30 -51 0 -3 13 -25 30 -48 17 -22 30 -46 30
-51 0 -6 6 -18 14 -26 7 -9 26 -40 41 -69 l28 -52 -23 -50 c-13 -28 -26 -50
-30 -50 -4 0 -12 -10 -17 -22 -21 -44 -149 -180 -236 -251 -21 -18 -47 -39
-57 -47 -10 -8 -31 -24 -46 -35 -15 -11 -47 -35 -71 -52 -24 -18 -46 -33 -49
-33 -3 0 -32 -18 -64 -40 -32 -22 -64 -40 -69 -40 -6 0 -11 -4 -11 -10 0 -5
-5 -10 -10 -10 -9 0 -65 -35 -80 -50 -3 -3 -23 -18 -44 -34 -58 -44 -133 -124
-175 -186 -20 -30 -38 -57 -41 -60 -6 -6 -42 -83 -42 -90 0 -3 -9 -22 -19 -42
-11 -21 -17 -38 -14 -38 2 0 0 -12 -6 -27 -17 -43 -24 -118 -24 -236 1 -59 -3
-107 -7 -107 -4 0 -8 4 -8 9 0 4 -13 24 -30 42 -16 19 -35 45 -42 59 -7 14
-17 32 -23 40 -19 25 -54 121 -66 180 -12 57 -19 300 -10 300 3 0 6 24 7 53 0
51 11 163 19 202 4 18 12 72 20 135 1 14 10 80 19 148 9 67 14 127 11 132 -3
6 -2 10 2 10 18 0 6 435 -14 490 -3 8 -7 29 -9 45 -7 44 -52 168 -84 234 -75
151 -220 290 -384 369 -109 52 -230 36 -307 -40 -51 -50 -71 -97 -75 -167 -3
-66 8 -94 59 -148 32 -33 56 -47 122 -68 100 -31 143 -66 190 -149 51 -93 108
-265 120 -369 3 -23 8 -49 10 -57 3 -8 7 -37 11 -65 3 -27 7 -61 9 -75 17
-121 21 -316 15 -690 -3 -163 2 -208 36 -332 57 -208 217 -422 392 -528 37
-22 63 -40 57 -41 -5 0 -165 -2 -355 -2 l-345 -2 0 -75 0 -75 2830 0 2830 0 2
76 2 76 -751 -1 c-412 -1 -755 2 -761 6 -9 6 -9 8 0 8 6 0 24 11 40 24 15 13
64 36 108 51 341 117 651 401 835 765 26 52 73 165 75 180 0 3 3 10 7 15 12
19 51 170 63 245 4 25 9 54 11 65 19 98 22 285 9 530 -12 253 -8 664 10 870
11 127 20 219 30 295 3 19 7 55 10 80 4 25 8 56 10 70 29 179 31 190 51 279 9
36 17 74 20 84 12 61 87 291 105 325 10 17 16 32 13 32 -6 0 84 172 95 180 3
3 19 24 35 48 71 104 175 172 301 198 139 28 234 92 280 191 31 65 35 155 10
224 -9 24 -19 52 -22 62 -3 9 -9 17 -13 17 -5 0 -12 9 -15 20 -4 11 -25 37
-46 58 -83 77 -176 112 -285 107 -99 -5 -157 -26 -294 -108 -203 -122 -370
-280 -486 -459 -55 -83 -149 -276 -158 -324 -3 -11 -9 -32 -15 -47 -16 -42
-59 -215 -66 -267 -3 -25 -8 -56 -10 -70 -41 -234 -36 -658 11 -1000 4 -25 8
-58 9 -75 2 -16 6 -43 8 -60 3 -16 11 -66 17 -110 6 -44 12 -91 14 -105 7 -40
18 -122 22 -160 2 -19 6 -44 9 -55 2 -11 7 -47 10 -80 6 -60 10 -93 19 -170
27 -214 27 -712 1 -756 -2 -3 -7 -21 -10 -40 -27 -159 -137 -384 -260 -534
-81 -98 -323 -350 -331 -343 -1 2 9 30 23 63 28 68 61 173 69 224 3 18 8 43
10 55 20 88 20 350 0 436 -3 14 -8 36 -10 50 -17 105 -84 291 -138 383 -15 26
-28 51 -28 55 0 9 -75 116 -124 177 -42 52 -169 182 -221 225 -74 61 -324 230
-341 230 -9 0 -309 203 -312 211 -2 5 -8 9 -14 9 -6 0 -32 17 -58 38 -27 20
-63 48 -81 62 -174 133 -333 279 -449 410 -46 52 -172 220 -192 255 -77 139
-151 315 -163 390 -2 11 -9 45 -15 75 -15 76 -22 168 -22 280 0 123 7 260 13
261 4 0 30 -8 69 -22 14 -5 34 -11 45 -14 11 -3 43 -11 70 -19 296 -82 608 6
835 235 74 75 84 86 128 147 24 33 109 192 110 205 3 42 63 207 75 207 4 0 7
7 7 16 0 8 71 86 158 172 170 169 218 224 250 288 l20 40 -131 3 c-217 5 -280
5 -324 -2 -70 -10 -164 -37 -206 -59 -33 -17 -41 -18 -48 -6 -12 21 -78 96
-129 146 -48 47 -195 161 -220 170 -8 3 -17 9 -20 12 -10 14 -217 108 -285
130 -79 25 -92 28 -155 37 -58 8 -77 18 -86 45 -13 41 -143 221 -194 268 -3 3
-25 30 -50 60 -25 30 -47 57 -51 60 -3 3 -25 32 -50 65 -24 33 -47 62 -51 63
-5 2 -8 10 -8 18 0 8 -4 14 -10 14 -5 0 -10 5 -10 10 0 12 -82 139 -90 140 -3
0 -5 -19 -6 -43z m606 -5702 c19 -7 50 -19 68 -26 30 -11 33 -15 26 -38 -40
-139 55 -375 218 -542 l36 -37 -32 -7 c-17 -4 -33 -9 -36 -10 -3 -1 -20 -8
-37 -16 -18 -7 -33 -17 -33 -21 0 -4 -6 -8 -13 -8 -18 0 -103 -83 -112 -109
-3 -11 -14 -21 -23 -22 -91 -4 -135 -3 -143 2 -6 3 -4 30 5 70 43 191 53 504
21 659 -3 14 -8 45 -11 70 -3 24 -8 48 -11 53 -6 10 22 3 77 -18z m-325 -280
c17 -137 22 -309 12 -341 -4 -11 -23 -26 -43 -33 -56 -20 -100 -65 -115 -118
-7 -27 -12 -51 -11 -55 1 -5 -7 -8 -17 -8 -12 0 -23 11 -29 29 -6 16 -26 41
-46 56 l-35 27 4 76 c5 82 5 82 29 183 16 72 54 188 66 204 4 6 11 24 15 40
10 37 8 32 31 82 14 31 23 41 34 37 40 -16 48 -15 56 8 6 19 11 9 25 -52 9
-41 20 -102 24 -135z m-519 -408 c1 -34 5 -80 9 -102 l7 -40 -29 29 c-15 16
-38 35 -49 43 l-22 14 38 57 c21 31 36 61 33 67 -4 5 -2 7 2 2 5 -4 9 -35 11
-70z"/>
<path d="M1513 5037 c-40 -15 -112 -68 -113 -83 0 -7 -6 -14 -13 -17 -15 -5
-73 -119 -83 -162 -4 -16 -8 -69 -8 -117 l-1 -86 -62 60 c-34 34 -70 66 -80
71 -10 6 -20 14 -23 18 -3 4 -33 20 -67 37 -95 46 -176 37 -238 -26 -45 -47
-62 -76 -96 -167 -29 -79 -24 -169 15 -249 35 -72 145 -185 242 -248 88 -57
201 -118 220 -118 8 0 14 -4 14 -10 0 -5 7 -10 15 -10 8 0 23 -4 33 -9 31 -16
65 -29 147 -56 11 -3 22 -7 25 -7 3 -1 43 -11 90 -22 111 -27 153 -28 155 -1
1 11 6 40 10 65 5 25 8 48 7 53 -1 4 3 7 9 7 5 0 8 4 5 8 -4 7 0 31 18 102 11
43 39 167 41 180 1 8 4 26 8 40 10 37 16 70 33 185 4 28 7 106 8 175 1 106 -3
136 -23 197 -48 147 -175 231 -288 190z"/>
<path d="M3285 3985 c-48 -12 -104 -32 -125 -44 -78 -46 -119 -135 -122 -266
-1 -22 13 -139 17 -145 2 -4 7 -22 10 -41 6 -37 66 -221 75 -229 3 -3 15 -27
28 -54 13 -27 35 -64 49 -82 l25 -34 42 23 c22 12 47 28 54 35 7 6 17 12 21
12 5 0 52 25 106 55 53 30 98 55 100 55 2 0 41 26 87 57 149 102 226 197 232
290 10 150 -133 213 -300 132 -25 -11 -50 -26 -57 -33 -7 -6 -24 -21 -37 -33
l-25 -22 0 92 c-1 78 -5 100 -25 142 -14 27 -36 57 -50 67 -23 16 -81 29 -105
23z"/>
</g>
</svg>
